<?xml version="1.0" encoding="iso-8859-1"?>
<!-- Generator: Adobe Illustrator 19.0.0, SVG Export Plug-In . SVG Version: 6.00 Build 0)  -->
<svg version="1.1" id="Capa_1" xmlns="http://www.w3.org/2000/svg" xmlns:xlink="http://www.w3.org/1999/xlink" x="0px" y="0px"
	 viewBox="0 0 512.001 512.001" style="enable-background:new 0 0 512.001 512.001;" xml:space="preserve">
<g>
	<g>
		<path d="M507.608,130.274L400.541,24.209c-5.858-5.858-15.355-5.858-21.213,0l-31.82,31.82l127.28,127.278l32.82-31.82
			C513.465,145.629,513.465,136.132,507.608,130.274z"/>
	</g>
</g>
<g>
	<g>
		<g>
			<path d="M216.17,144.941c0.082-0.082,0.163-0.163,0.237-0.237C216.33,144.78,216.251,144.859,216.17,144.941z"/>
			<path d="M216.098,145.012c0.024-0.024,0.048-0.048,0.072-0.072C216.145,144.965,216.123,144.987,216.098,145.012z"/>
			<path d="M214.548,146.562c0.613-0.614,1.128-1.128,1.55-1.55C215.639,145.472,215.11,146,214.548,146.562z"/>
			<path d="M217.585,143.525c0.05-0.05,0.088-0.088,0.111-0.111C217.672,143.438,217.636,143.475,217.585,143.525z"/>
			<path d="M217.696,143.415C217.733,143.378,217.734,143.376,217.696,143.415L217.696,143.415z"/>
			<path d="M212.775,148.336c0.229-0.229,0.452-0.452,0.663-0.663C213.218,147.893,212.996,148.115,212.775,148.336z"/>
			<path d="M339.023,89.97c-31.485,4.977-68.408,0.526-101.186,33.305c-22.621,22.621-29.265,29.264-29.597,29.596
				c0.168-0.168,1.788-1.789,3.643-3.644c-5.072,5.073-13.987,13.988-28.777,28.778c-8.698,8.696-8.698,23.123,0,31.82
				c8.646,8.646,23.102,8.718,31.82,0l47.728-47.73c23.432-23.432,61.423-23.432,84.853,0l94.958,94.957
				c13.044-24.688,6.68-30.809,13.026-50.612L339.023,89.97z"/>
			<path d="M216.936,144.174c-0.067,0.067-0.14,0.14-0.216,0.216C216.796,144.315,216.868,144.242,216.936,144.174z"/>
			<path d="M213.968,147.142c0.179-0.179,0.352-0.352,0.517-0.517C214.315,146.795,214.143,146.967,213.968,147.142z"/>
			<path d="M216.721,144.39c-0.099,0.099-0.204,0.204-0.313,0.313C216.52,144.59,216.623,144.487,216.721,144.39z"/>
		</g>
	</g>
</g>
<g>
	<g>
		<path d="M135.377,13.602c-5.857-5.858-15.355-5.858-21.213,0L4.394,119.667c-5.858,5.858-5.858,15.355,0,21.215l32.82,31.818
			L167.197,45.422L135.377,13.602z"/>
	</g>
</g>
<g>
	<g>
		<path d="M119.467,252.25c-8.787-8.787-23.033-8.787-31.82,0l-53.033,53.033c-8.787,8.787-8.787,23.033,0,31.82
			c8.787,8.787,23.033,8.788,31.82,0l53.033-53.033C128.254,275.283,128.254,261.037,119.467,252.25z"/>
	</g>
</g>
<g>
	<g>
		<path d="M172.5,305.283c-8.787-8.787-23.033-8.787-31.82,0l-53.033,53.033c-8.787,8.787-8.787,23.033,0,31.82
			c8.787,8.787,23.033,8.787,31.82,0l53.033-53.033C181.287,328.316,181.287,314.071,172.5,305.283z"/>
	</g>
</g>
<g>
	<g>
		<path d="M225.533,358.316c-8.787-8.787-23.033-8.787-31.82,0l-53.033,53.033c-8.785,8.787-8.785,23.033,0,31.82
			c8.787,8.787,23.033,8.787,31.82,0l53.033-53.033C234.32,381.349,234.32,367.103,225.533,358.316z"/>
	</g>
</g>
<g>
	<g>
		<path d="M278.565,411.349c-8.785-8.785-23.032-8.785-31.82,0l-53.033,53.033c-8.785,8.787-8.785,23.035,0,31.82
			c8.787,8.787,23.033,8.787,31.82,0l53.033-53.033C287.352,434.382,287.352,420.136,278.565,411.349z"/>
	</g>
</g>
<g>
	<g>
		<path d="M437.667,294.679l-111.37-111.37c-11.715-11.715-30.71-11.715-42.426,0l-47.73,47.73
			c-20.649,20.649-54.542,19.704-74.246,0c-19.706-19.706-20.649-53.599,0-74.247l54.73-54.73
			c13.363-13.363,28.848-22.908,46.456-29.485c-30.587-14.398-52.136-8.063-70.853-9.76l-88.671,88.671l-31.82,31.82
			c-18.571,18.571-27.23,43.603-25.963,68.39l18.192-18.193c19.953-19.951,52.778-23.502,74.046-4.958
			c12.193,10.633,18.131,25.463,17.959,40.234c13.651-0.159,27.35,4.9,37.742,15.291c10.393,10.391,15.45,24.091,15.291,37.742
			c13.651-0.159,27.35,4.9,37.742,15.291c10.393,10.391,15.45,24.091,15.291,37.742c13.651-0.159,27.35,4.9,37.744,15.291
			c13.165,13.167,17.741,31.619,13.969,48.576c6.42,0.553,13.004-1.304,17.849-6.149c8.699-8.699,8.698-23.124,0-31.82
			l-79.548-79.55c-5.94-5.94-5.94-15.275,0-21.213c5.94-5.94,15.273-5.94,21.213,0l79.55,79.548c8.696,8.698,23.123,8.698,31.82,0
			s8.696-23.123,0-31.818l-79.55-79.55c-5.94-5.94-5.94-15.275,0-21.213c5.94-5.94,15.273-5.94,21.213,0l79.55,79.548
			c8.696,8.698,23.123,8.698,31.82,0S446.363,303.374,437.667,294.679z"/>
	</g>
</g>
<g>
</g>
<g>
</g>
<g>
</g>
<g>
</g>
<g>
</g>
<g>
</g>
<g>
</g>
<g>
</g>
<g>
</g>
<g>
</g>
<g>
</g>
<g>
</g>
<g>
</g>
<g>
</g>
<g>
</g>
</svg>
