<svg width="141" height="96" xmlns="http://www.w3.org/2000/svg" xmlns:xlink="http://www.w3.org/1999/xlink"><view viewBox="96 0 44.922 44.922"/><svg width="44.922" height="44.922" x="96" xmlns="http://www.w3.org/2000/svg"><path d="M44.662 30.428L27.518 18.295a.611.611 0 0 0-.951.37l-1.47 6.829-9.055 4.896c-.559.303-.344 1.15.291 1.15h3.929v4.141h-3.579a1.941 1.941 0 0 0-1.941 1.941v7.18h2.46v-6.236c0-.201.163-.363.363-.363h2.697v6.6h22.083V31.54h1.964c.595 0 .841-.766.353-1.112zm-7.282 7.773h-3.81a.587.587 0 0 1-.586-.586v-3.029c0-.323.263-.586.586-.586h3.81c.323 0 .585.263.585.586v3.029a.586.586 0 0 1-.585.586z"/><path d="M3.596 5.948c1.885-.394 3.968-.012 5.936 1.552.912.725 1.582 1.53 2.043 2.378A3.91 3.91 0 0 0 9.212 8.59c-1.458-.219-2.906.497-3.783 1.683a3.592 3.592 0 0 0-.651 1.416c-.067.318.307.561.563.36.879-.684 2.05-1.046 3.483-.844 1.177.166 2.08.648 2.729 1.314C11.45 12.608.555 24.875 0 44.801h6.697c-.585-21.974 7.052-30.522 7.058-30.554.733.485 1.353 1.228 1.754 2.27.522 1.354.432 2.581-.04 3.595-.136.291.182.597.473.462a3.629 3.629 0 0 0 1.243-.96c.956-1.123 1.327-2.695.783-4.065a3.908 3.908 0 0 0-1.789-2.011c.93.258 1.866.729 2.778 1.453 1.937 1.539 2.784 3.444 2.85 5.341.013.356.449.514.678.24.63-.754 1.105-1.712 1.276-2.986.298-2.212-.466-4.505-2.225-5.879a6.207 6.207 0 0 0-1.84-.993l.195.021c2.366.276 4.052 1.374 5.117 2.862.248.347.812.198.854-.226.08-.827-.018-1.719-.401-2.687-.892-2.24-2.855-3.913-5.257-4.116a6.199 6.199 0 0 0-2.477.294 6.183 6.183 0 0 0-.272-2.476C16.716 2.092 14.642.555 12.259.193 11.2.033 10.289.149 9.486.431c-.379.133-.397.685-.025.836 1.716.691 3.192 2.093 4.005 4.361l.063.186a6.194 6.194 0 0 0-1.383-1.568c-1.736-1.402-4.142-1.628-6.229-.839-1.24.469-2.08 1.176-2.676 1.991a.35.35 0 0 0 .355.55z"/></svg><view viewBox="0 0 48 48"/><svg viewBox="0 0 512.001 512.001" width="48" height="48" xmlns="http://www.w3.org/2000/svg"><path d="M271.029 0c-33.091 0-61 27.909-61 61s27.909 61 61 61 60-27.909 60-61-26.909-61-60-61zm66.592 122c-16.485 18.279-40.096 30-66.592 30-26.496 0-51.107-11.721-67.592-30-14.392 15.959-23.408 36.866-23.408 60v15c0 8.291 6.709 15 15 15h151c8.291 0 15-6.709 15-15v-15c0-23.134-9.016-44.041-23.408-60zM144.946 460.404L68.505 307.149c-7.381-14.799-25.345-20.834-40.162-13.493l-19.979 9.897c-7.439 3.689-10.466 12.73-6.753 20.156l90 180c3.701 7.423 12.704 10.377 20.083 6.738l19.722-9.771c14.875-7.368 20.938-25.417 13.53-40.272zM499.73 247.7c-12.301-9-29.401-7.2-39.6 3.9l-82 100.8c-5.7 6-16.5 9.6-22.2 9.6h-69.901c-8.401 0-15-6.599-15-15s6.599-15 15-15h60c16.5 0 30-13.5 30-30s-13.5-30-30-30h-78.6c-7.476 0-11.204-4.741-17.1-9.901-23.209-20.885-57.949-30.947-93.119-22.795-19.528 4.526-32.697 12.415-46.053 22.993l-.445-.361-21.696 19.094L174.28 452h171.749c28.2 0 55.201-13.5 72.001-36l87.999-126c9.9-13.201 7.2-32.399-6.299-42.3z"/></svg><view viewBox="48 0 48 48"/><svg viewBox="0 0 511.993 511.993" width="48" height="48" x="48" xmlns="http://www.w3.org/2000/svg"><circle cx="124.208" cy="153.079" r="34.791"/><circle cx="337.047" cy="34.791" r="34.791"/><path d="M468.274 379.701h-15.893c.366-.126.733-.241 1.096-.389 9.876-4.069 14.584-15.374 10.515-25.251l-33.618-81.596-2.543-60.775a19.24 19.24 0 0 0-1.565-6.811L401.154 92.273c-2.825-12.669-15.386-20.649-28.055-17.824l-40.907 9.123c-12.669 2.825-20.649 15.386-17.824 28.055l3.662 16.418 15.91-25.107-16.608 47.91-54.755 23.546c-7.851 3.376-11.478 12.477-8.102 20.327 3.375 7.847 12.471 11.479 20.326 8.102l61.027-26.242a15.475 15.475 0 0 0 8.507-9.147l18.844-54.356-6.052 58.79c-1.243 12.069-11.469 15.226-15.951 17.15l-8.712 3.747 5.109 22.91-16.762 45.698a19.447 19.447 0 0 0-1.007 4.051l-12.713 93.397c-1.264 9.289 4.293 17.931 12.825 20.881h-16.23a7.139 7.139 0 0 0-7.139 7.139v59.007h-77.32c6.062-3.956 9.658-11.149 8.617-18.799l-12.714-93.397a19.34 19.34 0 0 0-15.845-16.445l-36.216-6.31v-32.849l-45.604-37.168 51.736 25.164a15.462 15.462 0 0 0 12.481.464l61.734-24.532c7.941-3.156 11.82-12.151 8.665-20.094-3.156-7.941-12.153-11.82-20.094-8.665l-55.389 22.012-45.597-22.179 31.883 7.183c-1.43-11.611-11.321-20.601-23.318-20.601H97.654c-12.98 0-23.502 10.523-23.502 23.502v120.584h.021l-2.509 59.966-33.619 81.596c-4.07 9.877.639 21.182 10.515 25.251 9.884 4.071 21.184-.644 25.251-10.515l34.918-84.748a19.321 19.321 0 0 0 1.441-6.559l2.685-64.181c.011-.273-.007-.539-.007-.808h15.947c2.769 1.134.17.499 49.914 9.168l10.806 79.38c.788 5.793 4.076 10.62 8.616 13.582h-73.312a7.14 7.14 0 0 0-7.139 7.139v51.87a7.138 7.138 0 0 0 7.139 7.138h343.454a7.138 7.138 0 0 0 7.139-7.138V386.843a7.138 7.138 0 0 0-7.138-7.142zm-135.719-.001c6.675-2.309 11.846-8.187 12.863-15.664l12.43-91.317 18.871-51.453 12.677-2.827 2.471 59.049a19.316 19.316 0 0 0 1.441 6.559l34.917 84.748c2.199 5.34 6.519 9.157 11.58 10.905h-107.25z"/></svg><view viewBox="0 48 48 48"/><svg viewBox="0 0 512.001 512.001" width="48" height="48" y="48" xmlns="http://www.w3.org/2000/svg"><path d="M507.608 130.274L400.541 24.209c-5.858-5.858-15.355-5.858-21.213 0l-31.82 31.82 127.28 127.278 32.82-31.82c5.857-5.858 5.857-15.355 0-21.213zM216.17 144.941l.237-.237-.237.237zm-.072.071l.072-.072-.072.072zm-1.55 1.55l1.55-1.55-1.55 1.55zm3.037-3.037l.111-.111-.111.111zm.111-.11c.037-.037.038-.039 0 0zm-4.921 4.921l.663-.663-.663.663z"/><path d="M339.023 89.97c-31.485 4.977-68.408.526-101.186 33.305l-29.597 29.596 3.643-3.644a546247.83 546247.83 0 0 1-28.777 28.778c-8.698 8.696-8.698 23.123 0 31.82 8.646 8.646 23.102 8.718 31.82 0l47.728-47.73c23.432-23.432 61.423-23.432 84.853 0l94.958 94.957c13.044-24.688 6.68-30.809 13.026-50.612L339.023 89.97zm-122.087 54.204l-.216.216.216-.216zm-2.968 2.968l.517-.517-.517.517zm2.753-2.752l-.313.313.313-.313zM135.377 13.602c-5.857-5.858-15.355-5.858-21.213 0L4.394 119.667c-5.858 5.858-5.858 15.355 0 21.215l32.82 31.818L167.197 45.422l-31.82-31.82zm-15.91 238.648c-8.787-8.787-23.033-8.787-31.82 0l-53.033 53.033c-8.787 8.787-8.787 23.033 0 31.82 8.787 8.787 23.033 8.788 31.82 0l53.033-53.033c8.787-8.787 8.787-23.033 0-31.82zm53.033 53.033c-8.787-8.787-23.033-8.787-31.82 0l-53.033 53.033c-8.787 8.787-8.787 23.033 0 31.82 8.787 8.787 23.033 8.787 31.82 0l53.033-53.033c8.787-8.787 8.787-23.032 0-31.82zm53.033 53.033c-8.787-8.787-23.033-8.787-31.82 0l-53.033 53.033c-8.785 8.787-8.785 23.033 0 31.82 8.787 8.787 23.033 8.787 31.82 0l53.033-53.033c8.787-8.787 8.787-23.033 0-31.82zm53.032 53.033c-8.785-8.785-23.032-8.785-31.82 0l-53.033 53.033c-8.785 8.787-8.785 23.035 0 31.82 8.787 8.787 23.033 8.787 31.82 0l53.033-53.033c8.787-8.787 8.787-23.033 0-31.82z"/><path d="M437.667 294.679l-111.37-111.37c-11.715-11.715-30.71-11.715-42.426 0l-47.73 47.73c-20.649 20.649-54.542 19.704-74.246 0-19.706-19.706-20.649-53.599 0-74.247l54.73-54.73c13.363-13.363 28.848-22.908 46.456-29.485-30.587-14.398-52.136-8.063-70.853-9.76l-88.671 88.671-31.82 31.82c-18.571 18.571-27.23 43.603-25.963 68.39l18.192-18.193c19.953-19.951 52.778-23.502 74.046-4.958 12.193 10.633 18.131 25.463 17.959 40.234 13.651-.159 27.35 4.9 37.742 15.291 10.393 10.391 15.45 24.091 15.291 37.742 13.651-.159 27.35 4.9 37.742 15.291 10.393 10.391 15.45 24.091 15.291 37.742 13.651-.159 27.35 4.9 37.744 15.291 13.165 13.167 17.741 31.619 13.969 48.576 6.42.553 13.004-1.304 17.849-6.149 8.699-8.699 8.698-23.124 0-31.82l-79.548-79.55c-5.94-5.94-5.94-15.275 0-21.213 5.94-5.94 15.273-5.94 21.213 0l79.55 79.548c8.696 8.698 23.123 8.698 31.82 0s8.696-23.123 0-31.818l-79.55-79.55c-5.94-5.94-5.94-15.275 0-21.213 5.94-5.94 15.273-5.94 21.213 0l79.55 79.548c8.696 8.698 23.123 8.698 31.82 0s8.696-23.123 0-31.818z"/></svg><view viewBox="48 48 48 48"/><svg viewBox="0 0 489.38 489.38" width="48" height="48" x="48" y="48" xmlns="http://www.w3.org/2000/svg"><path d="M473.725 5.656H213.576c-8.655 0-15.655 7.022-15.655 15.664v110.484l11.319-13.234c5.375-6.292 12.461-10.172 19.992-11.793V36.978h228.836v204.531H229.233v-34.238l-7.05 8.244c-6.161 7.189-14.858 11.65-24.262 12.529v29.124c0 8.642 7 15.655 15.655 15.655h84.489L255.141 467.7c-1.923 8.739 3.6 17.382 12.346 19.31 8.667 1.904 17.382-3.601 19.287-12.331l44.457-201.855h25.844l44.457 201.855c1.666 7.557 8.369 12.714 15.803 12.705a16.32 16.32 0 0 0 3.502-.374c8.746-1.928 14.268-10.57 12.328-19.31l-42.92-194.877h83.481c8.647 0 15.655-7.013 15.655-15.655V21.32c-.001-8.642-7.009-15.664-15.656-15.664z"/><path d="M349.368 97.116c-1.234-3.11-4.732-4.637-7.84-3.406l-92.234 32.555c-8.465-6.554-20.678-5.383-27.737 2.827L192.29 163.27l-25.951-22.245c.171 1.837.56 3.622.56 5.507v48.291l14.438 12.371c8.568 7.338 21.385 6.204 28.549-2.198l34.842-40.743 28.1-16.439 73.951-43.267a6.032 6.032 0 0 0 2.589-7.431zm-239.44 8.66H92.547c-13.308 0-25.01 6.468-32.448 16.327l-53.352 49.12c-8.313 7.405-9.067 20.232-1.581 28.595l43.528 48.585c7.421 8.309 20.267 9.044 28.579 1.576 8.334-7.469 9.038-20.262 1.57-28.586L48.84 187.889l42.616-38.134-24.82 33.721 24.279 27.107c13.416 14.992 12.151 38.027-2.834 51.453-10.231 9.172-24.193 11.324-36.297 7.094 0 0 .188 93.659.188 193.962 0 13.416 10.874 24.291 24.291 24.291 13.403 0 24.291-10.875 24.291-24.291V318.321h16.203v144.771c0 7.004-1.953 13.49-5.067 19.231 4.076 3.135 9.148 5.06 14.676 5.06 13.424 0 24.298-10.875 24.298-24.291 0-100.272.031-58.237.031-316.561.002-22.509-18.245-40.755-40.767-40.755zM79.592 91.198c6.495 3.376 13.787 5.471 21.62 5.471 7.853 0 15.145-2.095 21.659-5.477 15.204-7.877 25.684-23.559 25.684-41.862 0-26.146-21.196-47.335-47.344-47.335-26.144 0-47.335 21.189-47.335 47.335.001 18.313 10.492 34.001 25.716 41.868z"/></svg></svg>